<svg width="531" height="276" viewBox="0 0 531 276" fill="none" xmlns="http://www.w3.org/2000/svg">
<path d="M216.642 273.9C200.842 270.1 186.142 256.5 181.742 241.8L180.542 237.5H165.342C146.142 237.5 145.742 237.3 145.142 226.4C144.942 222.3 145.142 209.1 145.542 197C146.242 177 146.542 175 148.142 174.7C152.142 173.9 152.842 176 152.842 190.1V203.5H168.842H184.842L187.242 199.7C195.442 186.6 212.342 177.5 228.342 177.5C244.342 177.5 261.242 186.6 269.442 199.7L271.842 203.5H339.342H406.842L406.642 109.1C406.342 15 406.342 14.6 404.242 11.8C403.142 10.3 400.642 8.5 398.742 7.8C394.242 6.2 174.642 6 167.842 7.6C162.442 8.8 157.442 12.4 155.042 16.8C153.642 19.4 153.242 23.4 152.842 38.4C152.442 53.9 152.042 56.9 150.742 57.8C149.842 58.4 148.342 58.5 147.442 58.2C146.042 57.6 145.842 55.2 145.842 38.3C145.842 21.6 146.142 18.4 147.742 14.9C150.042 9.8 155.242 4.5 160.442 1.9C164.242 0.0999997 167.642 0 282.942 0H401.442L405.042 2.4C406.942 3.7 409.642 6.4 410.942 8.3C413.242 11.8 413.342 12.4 413.642 34.7L413.942 57.5H440.342C454.842 57.5 467.442 57.8 468.342 58.1C469.242 58.5 479.642 78 491.542 101.9L513.142 145L513.642 174.3L514.142 203.5H520.342C529.242 203.5 530.242 204.9 530.642 217.7C531.342 236.5 530.642 237.5 516.842 237.5H507.042L506.342 240.8C505.142 246.5 499.642 255.5 493.942 261.2C478.042 277.1 452.042 279.8 433.142 267.6C423.642 261.5 416.442 252.1 412.942 241.3L411.642 237.5H343.942H276.142L274.942 241.8C271.842 252.2 261.142 264.8 251.042 269.9C240.542 275.2 227.942 276.7 216.642 273.9V273.9ZM235.442 240.4C246.942 234.9 247.042 218.2 235.742 212.5C224.842 206.9 212.642 214.2 212.642 226.4C212.642 232.8 215.542 237.6 221.142 240.4C226.442 243 230.042 243 235.442 240.4ZM467.342 240.2C471.642 237.8 475.842 231.1 475.842 226.5C475.842 222.9 471.842 215.5 468.642 213.2C467.242 212.1 463.742 211 461.042 210.7C445.942 209.3 437.842 227.8 449.042 238.2C454.042 242.9 461.142 243.7 467.342 240.2V240.2ZM179.642 222.9C179.842 219.3 180.342 215.2 180.842 213.9L181.842 211.5H167.342H152.842V220.5V229.5H166.142H179.342L179.642 222.9ZM411.042 222.3C411.342 218.3 411.842 214.2 412.242 213.3C413.042 211.6 409.342 211.5 343.942 211.5H274.842L275.842 213.9C276.342 215.2 276.842 219.3 277.042 222.9L277.342 229.5H343.942H410.642L411.042 222.3V222.3ZM522.842 220.5V211.5H514.742H506.642L507.142 214.3C507.442 215.8 508.042 219.8 508.442 223.3L509.142 229.5H515.942H522.842V220.5V220.5ZM418.342 199.9C420.942 195.1 430.842 186 436.942 183C451.342 175.7 467.742 175.8 482.742 183.3C488.542 186.2 498.942 195.9 501.442 200.6C502.242 202.2 503.542 203.5 504.342 203.5C505.642 203.5 505.842 199.5 505.842 175.5V147.5L485.342 106.5L464.842 65.5H439.342H413.842V134.5C413.842 207.7 413.842 208.2 418.342 199.9V199.9Z" fill="black"/>
<path d="M426.142 155.8C425.142 155.4 424.842 146.4 424.842 115.5C424.842 80.1 425.042 75.6 426.442 75.1C427.342 74.8 434.842 74.5 443.342 74.5C454.342 74.5 458.842 74.8 459.542 75.8C461.942 78.8 490.942 151.6 490.642 153.7L490.342 156L458.842 156.2C441.542 156.3 426.742 156.1 426.142 155.8V155.8ZM481.142 148.8C481.342 148.3 475.442 133.3 468.042 115.3L454.542 82.5H443.242H431.842V115.3C431.842 133.4 432.142 148.5 432.542 148.8C433.442 149.8 480.642 149.7 481.142 148.8V148.8Z" fill="black"/>
<path d="M204.042 165.5C198.742 164.2 193.242 160 190.942 155.3C189.242 151.6 188.842 149 188.842 140.4C188.842 128.2 190.742 123.2 197.042 118.2C200.242 115.6 201.842 115.1 208.042 114.8C214.242 114.4 216.042 114.7 219.842 116.7C224.342 119 227.142 122.6 228.342 127.8C229.042 130.5 229.042 130.5 223.642 130.5C218.642 130.5 218.242 130.3 217.142 127.5C214.842 121.3 206.242 121.3 202.142 127.4C200.142 130.3 199.842 132.1 199.842 140.2C199.842 153.7 202.242 157.5 210.742 157.5C217.042 157.5 217.842 156.8 217.842 151.9V147.5H213.842H209.842V143.5V139.5H219.342H228.842V149.5V159.5L225.042 162C222.842 163.4 218.542 165 215.242 165.5C208.642 166.6 208.642 166.6 204.042 165.5V165.5Z" fill="black"/>
<path d="M270.342 165.8C264.342 164.6 260.842 160.4 260.842 154.4C260.842 152.2 261.842 150.3 264.142 148C267.042 145.1 268.242 144.7 274.642 144C281.642 143.3 281.842 143.2 281.842 140.6C281.842 137.2 280.142 135.5 276.742 135.5C274.842 135.5 273.742 136.1 273.342 137.5C272.842 139.2 271.842 139.5 267.142 139.5C261.642 139.5 261.642 139.5 262.242 136.8C264.542 127.1 283.242 124.2 290.142 132.4C292.342 135 292.642 136.5 293.142 148.2C293.442 155.2 294.042 162 294.442 163.3C295.042 165.4 294.842 165.5 289.542 165.5C284.842 165.5 283.842 165.2 283.342 163.5C282.742 161.6 282.642 161.6 280.042 163.4C277.042 165.5 273.342 166.4 270.342 165.8V165.8ZM279.942 157.5C281.242 156.7 281.842 155.4 281.842 153C281.842 149.7 281.642 149.5 278.442 149.5C274.742 149.5 271.842 151.6 271.842 154.4C271.842 158.1 275.942 159.6 279.942 157.5Z" fill="black"/>
<path d="M310.142 165.4C304.642 163.8 303.342 160.7 302.942 147.3C302.642 135.6 302.642 135.5 300.242 135.5C298.142 135.5 297.842 135 297.842 132C297.842 128.9 298.142 128.5 300.342 128.5C302.642 128.5 302.842 128.2 302.842 123.5V118.5H308.342H313.842V123.5V128.5H317.342C320.642 128.5 320.842 128.7 320.842 132C320.842 135.3 320.642 135.5 317.342 135.5H313.842V145.3C313.842 155.7 314.542 157.5 318.542 157.5C320.542 157.5 320.842 158 320.842 161.4C320.842 164.6 320.442 165.4 318.642 165.9C315.742 166.6 314.142 166.5 310.142 165.4V165.4Z" fill="black"/>
<path d="M354.642 165.3C350.742 164.3 344.842 158.6 344.842 156C344.842 153.9 354.442 153.9 355.242 156C356.742 160 365.842 159.7 365.842 155.6C365.842 153 364.242 152 357.542 150C349.542 147.7 345.842 144.4 345.842 139.5C345.842 131.5 353.742 126.6 364.642 128C370.742 128.8 375.342 132.2 376.443 136.8C377.043 139.5 377.043 139.5 371.442 139.5C367.142 139.5 365.842 139.1 365.842 138C365.842 134.5 357.742 133.6 356.442 137C355.342 139.9 357.042 141.5 362.742 143.1C373.543 146.1 376.843 148.9 376.843 155.3C376.843 158.7 374.543 162.1 371.043 163.9C367.242 165.8 359.042 166.5 354.642 165.3V165.3Z" fill="black"/>
<path d="M236.842 147V128.5H241.742C246.142 128.5 246.642 128.7 247.242 131.1L247.942 133.8L249.542 131.4C251.742 128.2 252.842 127.5 255.842 127.5C258.242 127.5 258.342 127.7 258.042 132.4C257.642 137.1 257.542 137.3 254.142 137.8C248.142 138.8 247.842 139.4 247.842 153.1V165.5H242.342H236.842V147V147Z" fill="black"/>
<path d="M326.842 147V128.5H332.842H338.843V147V165.5H332.842H326.842V147Z" fill="black"/>
<path d="M96.7424 161.9C95.8424 160.8 95.7424 159.9 96.5424 158.7C97.4424 157.2 101.042 157 133.442 157H169.342V160V163L133.742 163.3C102.142 163.5 97.9424 163.3 96.7424 161.9V161.9Z" fill="black"/>
<path d="M73.4424 133C71.6424 131.2 72.3424 128.9 74.9424 127.5C77.4424 126.1 165.342 126.2 167.942 127.5C170.242 128.8 170.442 133 168.242 133.9C167.342 134.2 146.042 134.5 120.842 134.5C81.0424 134.5 74.7424 134.3 73.4424 133V133Z" fill="black"/>
<path d="M273.942 119.8C278.342 113.9 279.042 113.5 284.742 113.5H290.342L285.842 117.5C282.142 120.7 280.642 121.4 276.942 121.5C272.942 121.5 272.742 121.4 273.942 119.8Z" fill="black"/>
<path d="M326.842 115V111.5H332.842H338.843V115V118.5H332.842H326.842V115Z" fill="black"/>
<path d="M37.2424 105.1C36.9424 104.3 36.8424 102.8 37.0424 101.8C37.3424 100.1 40.5424 100 103.342 100H169.342V103V106L103.542 106.3C46.8424 106.5 37.7424 106.3 37.2424 105.1V105.1Z" fill="black"/>
<path d="M275.342 101.1C271.542 99.4 266.342 93.9 264.942 90.2C263.142 85.6 263.642 73.6 265.742 69C269.242 61.1 277.242 56.8 286.142 57.8C296.442 59.1 301.842 66 301.842 77.8V84.5H289.342C282.342 84.5 276.842 84.9 276.842 85.4C276.842 85.9 278.042 87.8 279.542 89.5C282.042 92.5 282.442 92.6 288.242 92.2C291.642 92 295.342 91.5 296.442 91.1C298.342 90.4 298.842 90.9 299.842 93.9C300.442 95.9 300.742 97.9 300.442 98.4C298.242 101.9 281.242 103.7 275.342 101.1V101.1ZM289.442 73.3C288.242 67.2 282.542 65.5 278.942 70.1C277.742 71.6 276.842 73.6 276.842 74.6C276.842 76.3 277.642 76.5 283.442 76.5H290.142L289.442 73.3Z" fill="black"/>
<path d="M318.342 101.6C317.242 101.1 315.442 99.7 314.342 98.5C312.542 96.6 312.342 94.6 312.042 81.9L311.742 67.5H308.242C304.842 67.5 304.842 67.5 304.842 63C304.842 58.5 304.842 58.5 308.342 58.5H311.842V53V47.5H318.342H324.842V53V58.5H328.342C331.842 58.5 331.842 58.5 331.842 63C331.842 67.5 331.842 67.5 328.342 67.5H324.742L325.042 79.8L325.342 92L328.342 92.3C332.042 92.8 332.842 93.9 332.842 98.8V102.5L326.642 102.4C323.142 102.4 319.442 102 318.342 101.6V101.6Z" fill="black"/>
<path d="M348.742 100.2C345.842 98.6 343.342 96.2 341.342 93C338.742 88.7 338.342 87.3 338.342 80.6C338.342 67.7 344.242 59.5 354.442 57.9C367.742 55.9 376.843 64.2 376.843 78.2V84.5H364.342C350.542 84.5 349.342 85.1 354.442 90.2C356.742 92.5 357.542 92.7 363.142 92.3C366.542 92 370.142 91.5 371.143 91C372.443 90.4 373.143 91.1 374.343 93.9C375.243 95.9 375.643 98 375.343 98.5C374.343 100.2 364.642 102.5 358.842 102.5C354.842 102.5 351.842 101.8 348.742 100.2V100.2ZM363.842 73.8C363.842 70.4 361.242 67.5 358.142 67.5C355.142 67.5 351.842 70.9 351.842 74C351.842 76.4 352.142 76.5 357.842 76.5C363.642 76.5 363.842 76.4 363.842 73.8Z" fill="black"/>
<path d="M187.842 72.5V43.5H208.342H228.842V48.5V53.5H214.842H200.742L201.042 60.8L201.342 68L213.142 68.3L224.842 68.6V73V77.4L213.142 77.7L201.342 78L201.042 89.8L200.742 101.5H194.342H187.842V72.5Z" fill="black"/>
<path d="M234.842 80V58.5H240.842H246.842V61.7V64.9L249.642 61.7C251.442 59.5 253.542 58.2 256.142 57.8C259.542 57.3 259.842 57.4 259.842 59.6C259.842 60.9 259.542 63.6 259.242 65.6C258.642 69 258.342 69.3 254.642 69.8C247.942 70.7 247.842 71.1 247.842 87.1V101.5H241.342H234.842V80V80Z" fill="black"/>
<path d="M0.742444 74.9C-0.157556 73.8 -0.257537 72.9 0.542462 71.7C1.44246 70.1 8.24246 70 85.4424 70H169.342V73V76L85.7424 76.3C10.3424 76.5 1.94244 76.4 0.742444 74.9V74.9Z" fill="black"/>
</svg>
