<svg width="1019" height="262" viewBox="0 0 1019 262" fill="none" xmlns="http://www.w3.org/2000/svg">
<path d="M162.6 260.5C148.9 257 135.4 246.2 125.2 230.5C119.5 221.9 104 190.9 99.5 179.5C98 175.7 96.5 170.6 96.2 168.3C95.8 164.5 96.1 163.7 99.3 160.5C102.2 157.6 103.5 157 107 157C113.3 157 117.7 159.7 123.9 167.2L129.5 174.1L130.2 138.3C131.1 87.7 132 84 143.5 84C150 84 153.9 85.9 156.4 90.2C159.5 95.3 160.2 99.2 161 116.2C161.8 135 162.3 136.4 167.7 135.4C170.3 134.9 172.5 135.5 178.3 138.4C184.4 141.4 186.6 142 191.6 141.9C196.5 141.8 198.7 142.3 205 145.4C210.8 148.2 213.3 148.9 215.8 148.5C219.6 147.8 226.4 150.5 229.7 154.2C233.5 158.3 234.3 166 233.7 194.5C233.1 223.5 232.1 230.3 226.9 240C222.2 248.8 214.9 254.4 202.3 258.6C195.8 260.9 192.4 261.3 181.5 261.6C172.3 261.9 166.8 261.5 162.6 260.5ZM198.4 250.9C211 246.8 221 238 224.5 228C226.9 221.4 228.3 201.7 227.7 183.5C227.2 165.4 225.9 160.6 220.9 157.6L217.9 155.8L214.1 159.9C211 163.3 209.6 164 206.7 164C203.3 164 203 163.8 203 161C203 159.4 202.5 157 201.9 155.7C200 151.6 193.4 149.3 190.1 151.6C188 153.1 186 160.5 186 167C186 170.9 185.9 171 182.7 171H179.3L177.8 159.8C176.4 149.9 175.9 148.3 173.6 146.3C167.8 141.3 164.4 144 162 155.3L160.9 161H157.1H153.3L152.6 132.3C152.2 116.4 151.5 101.7 151 99.5C149.3 92.2 143.6 90 139.7 95.2C136.9 98.9 136.1 108.6 135.9 141.5C135.8 156.9 135.5 172.7 135.1 176.5L134.5 183.5L130.4 183.8C126 184.1 126.5 184.6 115.7 169.8C112.2 165 109.4 163.4 107.4 165.1C106.6 165.7 106 167.3 106 168.7C106 174 121.4 206.9 133.2 226.7C140.4 238.7 146.5 244.9 155.5 249.1C166.8 254.4 185.4 255.2 198.4 250.9Z" fill="#264653"/>
<path d="M270.1 182.6C260.7 179.5 258 174.6 258 160.9V150.7L251.8 151.3C244.3 152 240.2 150.5 237.1 146.2L234.9 143.1L237 142C242 139.3 281.7 128.5 293.7 126.5C297.5 125.9 298 126.1 299.6 128.5C301.2 131 301.2 131.2 299.3 133.8C298 135.6 295.3 137.2 291.4 138.4C288.2 139.5 285.3 140.4 285.2 140.6C285 140.7 287 143.6 289.8 147C297.4 156.4 299.1 165.5 294.8 174C290.8 181.9 279.8 185.7 270.1 182.6ZM282.1 169.1C285.9 165.3 286 160.9 282.4 158.1C279.1 155.5 274.9 155.4 271.9 157.9C268.6 160.6 268.9 166.6 272.5 169.7C276 172.8 278.6 172.6 282.1 169.1Z" fill="#264653"/>
<path d="M165 255.9C156.6 254.6 147.8 250.5 141.5 244.8C135.8 239.6 127.4 226.1 117.1 205.4C103 177.1 100 167 104.4 162.1C108.3 157.8 114.6 160.7 120.9 169.7C127.7 179.6 129.7 181.7 131.1 180.3C132 179.4 132.5 168.5 133 138.7C133.6 101.8 133.8 98 135.6 94.4C138.1 89.2 142 87.4 147.1 88.9C153.4 90.8 154.2 92.9 155.1 111.3C155.5 120.2 155.9 134.4 155.9 142.8C156 151.4 156.4 158 156.9 158C157.4 158 158.4 155.4 159 152.3C161.3 141.4 163.2 139.6 171 141C177.8 142.2 179 144.2 180.9 157.2C182 165 182.6 167.3 182.8 164.5C183.8 149.8 186.4 146.3 195.3 147.4C202.8 148.4 206 151.5 206 157.9C206 159.6 206.3 161 206.7 161C207 161 209 159.2 211 157C215.2 152.5 219.1 151.8 224.1 154.7C229.6 157.9 230.3 161.9 230.6 188C230.9 212.7 230.1 223.1 227.5 230.8C224.2 240.8 214.1 249.7 201.4 253.9C193.4 256.6 175.9 257.5 165 255.9Z" fill="white"/>
<path d="M95.5 102.703C59.1 51.2033 44.9 33.7033 40.5 34.7033C39.4 35.0033 34 36.4033 28.5 37.8033C23 39.3033 15.2 40.8033 11.2 41.1033C2.3 41.8033 0 40.4033 0 34.1033C0 26.4033 7.4 22.6033 27.5 19.9033C49.1 17.0033 50.9 17.5033 60.5 29.7033C63.8 33.9033 67.1 37.3033 67.8 37.4033C68.5 37.4033 99.3 31.3033 136.3 23.9033C241.1 2.90326 268.6 -1.89674 270.1 0.603255C271.7 3.10326 285.8 65.9033 289.1 84.7033C290 90.4033 290 91.8033 288.9 92.9033C284.5 97.003 208.7 120.703 183.2 125.903C178.6 126.803 173.8 127.303 172.5 127.003C169.3 126.203 168.3 122.303 167.6 108.703C167 95.603 165.6 91.7033 159.7 85.5033C152.3 77.9033 148.3 75.4033 143 75.4033C133.3 75.4033 123.8 80.0033 120.6 86.3033C118.4 90.4033 116.9 99.503 115.6 115.103L114.5 129.503L95.5 102.703Z" fill="#264653"/>
<path d="M398.96 87.88C390.24 87.88 382.36 86 375.32 82.24C368.36 78.48 362.88 73.32 358.88 66.76C354.96 60.12 353 52.68 353 44.44C353 36.2 354.96 28.8 358.88 22.24C362.88 15.6 368.36 10.4 375.32 6.64C382.36 2.88 390.24 1 398.96 1C407.68 1 415.52 2.88 422.48 6.64C429.44 10.4 434.92 15.6 438.92 22.24C442.92 28.8 444.92 36.2 444.92 44.44C444.92 52.68 442.92 60.12 438.92 66.76C434.92 73.32 429.44 78.48 422.48 82.24C415.52 86 407.68 87.88 398.96 87.88ZM398.96 71.32C403.92 71.32 408.4 70.2 412.4 67.96C416.4 65.64 419.52 62.44 421.76 58.36C424.08 54.28 425.24 49.64 425.24 44.44C425.24 39.24 424.08 34.6 421.76 30.52C419.52 26.44 416.4 23.28 412.4 21.04C408.4 18.72 403.92 17.56 398.96 17.56C394 17.56 389.52 18.72 385.52 21.04C381.52 23.28 378.36 26.44 376.04 30.52C373.8 34.6 372.68 39.24 372.68 44.44C372.68 49.64 373.8 54.28 376.04 58.36C378.36 62.44 381.52 65.64 385.52 67.96C389.52 70.2 394 71.32 398.96 71.32ZM536.57 2.43999V86.44H520.61L478.73 35.44V86.44H459.53V2.43999H475.61L517.37 53.44V2.43999H536.57ZM556.444 2.43999H575.884V70.6H618.004V86.44H556.444V2.43999ZM628.866 2.43999H648.306V86.44H628.866V2.43999ZM745.281 2.43999V86.44H729.321L687.441 35.44V86.44H668.241V2.43999H684.321L726.081 53.44V2.43999H745.281ZM830.195 70.84V86.44H765.155V2.43999H828.635V18.04H784.475V36.28H823.475V51.4H784.475V70.84H830.195Z" fill="#264653"/>
<path d="M387.56 223.44C380.92 223.44 374.48 222.56 368.24 220.8C362.08 218.96 357.12 216.6 353.36 213.72L359.96 199.08C363.56 201.72 367.84 203.84 372.8 205.44C377.76 207.04 382.72 207.84 387.68 207.84C393.2 207.84 397.28 207.04 399.92 205.44C402.56 203.76 403.88 201.56 403.88 198.84C403.88 196.84 403.08 195.2 401.48 193.92C399.96 192.56 397.96 191.48 395.48 190.68C393.08 189.88 389.8 189 385.64 188.04C379.24 186.52 374 185 369.92 183.48C365.84 181.96 362.32 179.52 359.36 176.16C356.48 172.8 355.04 168.32 355.04 162.72C355.04 157.84 356.36 153.44 359 149.52C361.64 145.52 365.6 142.36 370.88 140.04C376.24 137.72 382.76 136.56 390.44 136.56C395.8 136.56 401.04 137.2 406.16 138.48C411.28 139.76 415.76 141.6 419.6 144L413.6 158.76C405.84 154.36 398.08 152.16 390.32 152.16C384.88 152.16 380.84 153.04 378.2 154.8C375.64 156.56 374.36 158.88 374.36 161.76C374.36 164.64 375.84 166.8 378.8 168.24C381.84 169.6 386.44 170.96 392.6 172.32C399 173.84 404.24 175.36 408.32 176.88C412.4 178.4 415.88 180.8 418.76 184.08C421.72 187.36 423.2 191.8 423.2 197.4C423.2 202.2 421.84 206.6 419.12 210.6C416.48 214.52 412.48 217.64 407.12 219.96C401.76 222.28 395.24 223.44 387.56 223.44ZM513.523 138V222H494.083V187.56H455.923V222H436.483V138H455.923V171.12H494.083V138H513.523ZM574.078 223.44C565.358 223.44 557.478 221.56 550.438 217.8C543.478 214.04 537.998 208.88 533.998 202.32C530.078 195.68 528.118 188.24 528.118 180C528.118 171.76 530.078 164.36 533.998 157.8C537.998 151.16 543.478 145.96 550.438 142.2C557.478 138.44 565.358 136.56 574.078 136.56C582.798 136.56 590.638 138.44 597.598 142.2C604.558 145.96 610.038 151.16 614.038 157.8C618.038 164.36 620.038 171.76 620.038 180C620.038 188.24 618.038 195.68 614.038 202.32C610.038 208.88 604.558 214.04 597.598 217.8C590.638 221.56 582.798 223.44 574.078 223.44ZM574.078 206.88C579.038 206.88 583.518 205.76 587.518 203.52C591.518 201.2 594.638 198 596.878 193.92C599.198 189.84 600.358 185.2 600.358 180C600.358 174.8 599.198 170.16 596.878 166.08C594.638 162 591.518 158.84 587.518 156.6C583.518 154.28 579.038 153.12 574.078 153.12C569.118 153.12 564.638 154.28 560.638 156.6C556.638 158.84 553.478 162 551.158 166.08C548.918 170.16 547.798 174.8 547.798 180C547.798 185.2 548.918 189.84 551.158 193.92C553.478 198 556.638 201.2 560.638 203.52C564.638 205.76 569.118 206.88 574.078 206.88ZM671.008 138C678.448 138 684.888 139.24 690.328 141.72C695.848 144.2 700.088 147.72 703.048 152.28C706.008 156.84 707.488 162.24 707.488 168.48C707.488 174.64 706.008 180.04 703.048 184.68C700.088 189.24 695.848 192.76 690.328 195.24C684.888 197.64 678.448 198.84 671.008 198.84H654.088V222H634.648V138H671.008ZM669.928 183C675.768 183 680.208 181.76 683.248 179.28C686.288 176.72 687.808 173.12 687.808 168.48C687.808 163.76 686.288 160.16 683.248 157.68C680.208 155.12 675.768 153.84 669.928 153.84H654.088V183H669.928ZM757.726 138C765.166 138 771.606 139.24 777.046 141.72C782.566 144.2 786.806 147.72 789.766 152.28C792.726 156.84 794.206 162.24 794.206 168.48C794.206 174.64 792.726 180.04 789.766 184.68C786.806 189.24 782.566 192.76 777.046 195.24C771.606 197.64 765.166 198.84 757.726 198.84H740.806V222H721.366V138H757.726ZM756.646 183C762.486 183 766.926 181.76 769.966 179.28C773.006 176.72 774.526 173.12 774.526 168.48C774.526 163.76 773.006 160.16 769.966 157.68C766.926 155.12 762.486 153.84 756.646 153.84H740.806V183H756.646ZM808.085 138H827.525V222H808.085V138ZM924.5 138V222H908.54L866.66 171V222H847.46V138H863.54L905.3 189V138H924.5ZM987.574 149.4C978.534 149.4 971.494 151.96 966.454 157.08C961.414 162.12 958.894 169.16 958.894 178.2C958.894 187.16 961.494 194.2 966.694 199.32C971.974 204.44 979.054 207 987.934 207C991.854 207 995.454 206.4 998.734 205.2V184.2H977.494V168.72H1018.17V216.96C1008.41 221.12 997.654 223.2 985.894 223.2C971.334 223.2 959.734 219.16 951.094 211.08C942.454 202.92 938.134 191.96 938.134 178.2C938.134 164.28 942.334 153.32 950.734 145.32C959.134 137.24 970.734 133.2 985.534 133.2C996.734 133.2 1006.41 135.88 1014.57 141.24L1008.81 155.88C1001.61 151.56 994.534 149.4 987.574 149.4Z" fill="#264653"/>
</svg>
